<svg xmlns="http://www.w3.org/2000/svg" xmlns:xlink="http://www.w3.org/1999/xlink" viewBox="130.5 159.7 289.1 50.5" xmlns:v="https://vecta.io/nano"><g fill="#0a369d"><path d="M232.9 178.9c-.7 5.4-5.6 9.3-11.1 9.3h-5.5v14H210v-34.4h13.7c2.8 0 5.6 1.1 7.2 3.4 1.6 2.1 2.4 4.8 2 7.7zm-6.3-1.4c0-2.4-1.9-4.3-4.3-4.3h-6v8.7h6c2.4-.1 4.3-2 4.3-4.4zm14.7-8.7c1.8 0 3.3 1.5 3.3 3.4 0 1.8-1.5 3.4-3.3 3.4s-3.3-1.5-3.3-3.4c0-1.8 1.5-3.4 3.3-3.4zm-3.2 9.9h6.3v23.1h-6.3v-23.1z"/><use xlink:href="#B"/><use xlink:href="#B" x="35.9"/><path d="M355.9 185c0 8-5.2 14.8-12.3 17.2-1.8.6-3.8 1-5.8 1s-4-.4-5.8-1c-7.2-2.4-12.3-9.2-12.3-17.2 0-7.9 5.1-14.7 12.2-17.2 1.9-.7 3.9-1 6-1s4.1.4 6 1c6.8 2.5 12 9.3 12 17.2zm-6.4 0c0-6.5-5.3-11.8-11.8-11.8s-11.8 5.3-11.8 11.8 5.3 11.8 11.8 11.8c6.5.1 11.8-5.3 11.8-11.8zm17.7 11.9h13.5v5.4h-19.9v-34.4h6.3v29zm52.4-11.9c0 8-5.2 14.8-12.3 17.2-1.8.6-3.8 1-5.8 1s-4-.4-5.8-1c-7.2-2.4-12.3-9.2-12.3-17.2 0-7.9 5.1-14.7 12.2-17.2 1.9-.7 3.9-1 6-1s4.1.4 6 1c6.9 2.5 12 9.3 12 17.2zm-6.3 0c0-6.5-5.3-11.8-11.8-11.8s-11.8 5.3-11.8 11.8 5.3 11.8 11.8 11.8 11.8-5.3 11.8-11.8zm-273.311-18.782a3.13 3.13 0 0 1 3.132-3.132h31.316 6.263a12.53 12.53 0 0 1 12.527 12.527A12.53 12.53 0 0 1 180.7 188.14h-3.132a9.4 9.4 0 0 1-9.395 9.395h-18.79a9.4 9.4 0 0 1-9.395-9.395zm37.58 15.658h3.132a6.27 6.27 0 0 0 6.263-6.263 6.27 6.27 0 0 0-6.263-6.263h-3.132zm-43.843 18.79h50.106a3.132 3.132 0 1 1 0 6.263h-50.106a3.132 3.132 0 1 1 0-6.263z"/></g><defs ><path id="B" d="M256 185c0 6.5 5.3 11.8 11.8 11.8 2.7 0 5.3-.9 7.4-2.6l4 4.9c-1.7 1.4-3.6 2.4-5.6 3.1-1.9.6-3.8 1-5.8 1s-4-.4-5.8-1c-7.2-2.4-12.3-9.2-12.3-17.2 0-7.9 5.1-14.7 12.2-17.2 1.9-.7 3.9-1 6-1 2 0 4 .4 5.8 1 2.6.9 5 2.2 6.9 4.2l-4.4 4.5c-2.2-2.2-5.2-3.4-8.3-3.4-6.6.1-11.9 5.4-11.9 11.9z"/></defs></svg>